<svg width="18" height="22" viewBox="0 0 18 22" fill="none" xmlns="http://www.w3.org/2000/svg">
<path d="M3.9375 22C2.85 22 1.92188 21.6242 1.15312 20.8725C0.384375 20.1208 0 19.2133 0 18.15V3.85C0 2.78667 0.384375 1.87917 1.15312 1.1275C1.92188 0.375833 2.85 0 3.9375 0H15.75C16.3687 0 16.8984 0.215417 17.3391 0.64625C17.7797 1.07708 18 1.595 18 2.2V15.9775C18 16.1242 17.9391 16.2571 17.8172 16.3762C17.6953 16.4954 17.475 16.6283 17.1562 16.775C16.8937 16.9033 16.6875 17.0867 16.5375 17.325C16.3875 17.5633 16.3125 17.8383 16.3125 18.15C16.3125 18.4617 16.3875 18.7412 16.5375 18.9888C16.6875 19.2362 16.8937 19.415 17.1562 19.525C17.4187 19.635 17.625 19.7862 17.775 19.9788C17.925 20.1712 18 20.3775 18 20.5975V20.8725C18 21.1842 17.8922 21.45 17.6766 21.67C17.4609 21.89 17.1938 22 16.875 22H3.9375ZM5.625 14.3C5.94375 14.3 6.21094 14.1946 6.42656 13.9838C6.64219 13.7729 6.75 13.5117 6.75 13.2V3.3C6.75 2.98833 6.64219 2.72708 6.42656 2.51625C6.21094 2.30542 5.94375 2.2 5.625 2.2C5.30625 2.2 5.03906 2.30542 4.82344 2.51625C4.60781 2.72708 4.5 2.98833 4.5 3.3V13.2C4.5 13.5117 4.60781 13.7729 4.82344 13.9838C5.03906 14.1946 5.30625 14.3 5.625 14.3ZM3.9375 19.8H14.4281C14.3156 19.5433 14.2266 19.2821 14.1609 19.0163C14.0953 18.7504 14.0625 18.4617 14.0625 18.15C14.0625 17.8567 14.0906 17.5725 14.1469 17.2975C14.2031 17.0225 14.2969 16.7567 14.4281 16.5H3.9375C3.45 16.5 3.04688 16.6604 2.72812 16.9813C2.40937 17.3021 2.25 17.6917 2.25 18.15C2.25 18.6267 2.40937 19.0208 2.72812 19.3325C3.04688 19.6442 3.45 19.8 3.9375 19.8Z" fill="#05F2D2"/>
</svg>
