<svg width="25" height="25" viewBox="0 0 25 25" fill="none" xmlns="http://www.w3.org/2000/svg">
<path d="M11.4844 9.27478V12.6C12.7588 12.8881 13.8916 13.3617 15.0781 13.6888V10.3588C13.8086 10.0756 12.666 9.60192 11.4844 9.27478ZM22.3877 3.26892C20.7129 4.04528 18.6523 4.82653 16.6748 4.82653C14.0625 4.82653 11.8994 3.12732 8.6084 3.12732C7.3877 3.12732 6.29883 3.34216 5.28809 3.71325C5.4248 3.35681 5.48828 2.97107 5.46387 2.56091C5.37598 1.17419 4.23828 0.060909 2.84668 0.00231526C1.28418 -0.0611613 0 1.18884 0 2.73669C0 3.66442 0.463867 4.48474 1.17188 4.9779V23.8304C1.17188 24.4799 1.69434 25.0023 2.34375 25.0023H3.125C3.77441 25.0023 4.29688 24.4799 4.29688 23.8304V19.2211C5.67871 18.6302 7.40234 18.142 9.88281 18.142C12.5 18.142 14.6582 19.8412 17.9492 19.8412C20.3027 19.8412 22.1826 19.0453 23.9307 17.8441C24.3555 17.5511 24.6045 17.0726 24.6045 16.555V4.68493C24.6094 3.54724 23.4229 2.7904 22.3877 3.26892ZM7.89063 15.8959C6.63086 16.0277 5.44922 16.2963 4.29688 16.7064V13.264C5.57617 12.8099 6.61621 12.5316 7.89063 12.4144V15.8959ZM22.2656 9.32849C21.1133 9.807 20.0049 10.2806 18.6719 10.4955V13.9672C19.8828 13.8011 21.1816 13.391 22.2656 12.6976V16.14C21.04 16.9261 19.8975 17.3461 18.6719 17.4633V13.9672C17.3535 14.1478 16.333 14.0404 15.0781 13.6937V16.9847C13.9111 16.6234 12.7686 16.1693 11.4844 15.9447V12.6C10.5225 12.3851 9.49219 12.2679 7.89063 12.4144V8.99646C6.79688 9.14782 5.71289 9.4945 4.29688 10.017V6.57458C5.91797 5.97888 6.74316 5.60778 7.89063 5.50036V8.99646C9.20898 8.81579 10.2539 8.93298 11.4844 9.27478V5.98376C12.6416 6.34509 13.7891 6.79919 15.0781 7.0238V10.3636C16.2354 10.6224 17.4023 10.7006 18.6719 10.4955V6.98474C19.9902 6.75036 21.2256 6.32067 22.2656 5.8861V9.32849Z" fill="#4CC9F0"/>
</svg>
